<?xml version="1.0" encoding="utf-8"?>
<!-- Generator: Adobe Illustrator 27.0.1, SVG Export Plug-In . SVG Version: 6.00 Build 0)  -->
<svg version="1.1" id="Layer_1" xmlns="http://www.w3.org/2000/svg" xmlns:xlink="http://www.w3.org/1999/xlink" x="0px" y="0px"
	 viewBox="0 0 105.9 165.5" style="enable-background:new 0 0 105.9 165.5;" xml:space="preserve">
<style type="text/css">
	.st0{fill:#F6B873;}
	.st1{fill:#C0272D;}
	.st2{fill:#D60716;}
</style>
<g id="Layer_1_00000101086422319812706360000003342633563350945183_">
	<path class="st0" d="M36,40.4c4.9-3.7,7.8-8.9,8.7-14.5c0.9-5.8-0.4-11.9-4.3-17C32.9-1,18.8-3,8.9,4.5S-3,26.1,4.5,36
		c1.1,1.5,2.4,2.7,3.7,3.8C16,46.2,27.5,46.7,36,40.4z"/>
	<path class="st0" d="M40.6,34.5c-4,3.1-5.2,8.6-4.3,14.2c0,0.2,0,0.3,0,0.5c0,0,0,0,0,0.2c0.1,1,24.8,40.7,27.1,45.7l-32,12
		c-4.3,1.6-7.4,5.4-8,10c-0.6,4.5,1.3,9.1,5,11.8l46.5,34.2c2.2,1.6,4.8,2.4,7.4,2.4c3.8,0,7.6-1.8,10.1-5.1
		c4.1-5.6,2.9-13.4-2.6-17.5l-27.9-20.6l18.5-7c0.1-0.1,0.3-0.1,0.4-0.2c1.2-0.4,2.5-0.9,3.8-1.5C93,110,102.4,104,98.8,88
		c-6.6-21.4-13.3-32.8-27.7-48.5C60.7,28.3,47.5,29.1,40.6,34.5z"/>
	<path class="st0" d="M84.8,90.9"/>
	<path class="st0" d="M41.1,56.7c7.7,9.3,15.1,22.7,15.5,40.9c0.1,4.4,3.8,7.9,8.2,7.8c4.4-0.1,7.9-3.8,7.8-8.2
		c-0.5-23.3-10.5-40.7-20.1-51.8"/>
</g>
<g id="Layer_3_00000068665460006989594670000007687106776951923356_">
	<g id="Layer_2_00000050644178877339360830000017248309548528581770_">
		<path class="st1" d="M63.5,95c1.7-0.4,2.3-0.5,6.4-1.2c0,0,0,0,14.7-2.9c9.6-1.9,9.6-1.9,9.6-1.9c3.4-0.8,3.8-1.1,4.8-0.9
			c4.4,0.9,8.3,9.9,6.4,17.3c-1.7,7-8.1,10.4-17.7,15.4c-7,3.7-10.5,3.8-12.9,3.3c-3.8-0.7-6.7-3-7.7-3.8c-1.8-1.5-1.8-2-6-7.3
			c-2.2-2.8-2.9-3.5-5.6-6.9c-4.2-5.4-4.3-6-4.2-6.6C51.9,97.6,55.8,96.7,63.5,95z"/>
	</g>
	<g id="Layer_3">
		<path d="M98.9,88.1c-6.6-21.4-13.3-32.8-27.7-48.5C60.7,28.3,47.5,29,40.5,34.4c-4,3.1-5.2,8.6-4.3,14.2c0,0.2,0,0.3,0,0.5
			c0,0,0,0,0,0.2C36.3,50.3,61,90,63.3,95"/>
		<path class="st2" d="M63.5,95c11.8-2.3,23.6-4.6,35.4-6.9"/>
	</g>
</g>
<g id="Layer_2_00000152265521160358995630000007553432128675142056_">
	<path class="st0" d="M54.4,63.9C62.3,73,70,86.2,70.9,104.4c0.3,4.4,4,7.8,8.3,7.7c4.4-0.3,7.8-4,7.7-8.3
		c-1.1-23.2-11.5-40.4-21.4-51.3"/>
</g>
<g id="Layer_4_00000174593544464778494630000017877928766082048677_">
	<g id="Layer_4">
		<path d="M61.5,66.7c5.7-0.9,10.2-5.4,12-10.5c0.4-1.2,2-6-0.2-10.7c-2.9-5.9-10.1-7.3-15.3-8.2c-4.5-0.8-8-1.5-11,0.6
			c-2.1,1.4-3.3,4.2-5.5,10c-1.3,3.4-2.1,5.2-1.8,6.6c0.6,3.7,4.6,5.9,8.6,8.1C53.9,65.7,57.1,67.4,61.5,66.7z"/>
	</g>
</g>
</svg>
