<?xml version="1.0" encoding="utf-8"?>
<!-- Generator: Adobe Illustrator 27.0.1, SVG Export Plug-In . SVG Version: 6.00 Build 0)  -->
<svg version="1.1" id="Layer_1" xmlns="http://www.w3.org/2000/svg" xmlns:xlink="http://www.w3.org/1999/xlink" x="0px" y="0px"
	 viewBox="0 0 308 490.6" style="enable-background:new 0 0 308 490.6;" xml:space="preserve">
<path d="M254.1,124.6H205V93.3l20.4-35.5c1-1.9,1.5-3.9,0.4-5.7s-3-2.5-5.2-2.5H196V40c0-22.1-17.9-40-40-40s-40,17.9-40,40v9.6
	H90.3c-2.1,0-4.3,0.6-5.4,2.4c-1.2,1.6-1.3,3.7-0.4,5.4L103,93.2v31.4H57.8c-14.8,0-29.4,4.8-40.1,14.4C6.6,149,0,162.1,0,176.7V432
	c0,30.7,27.5,58.7,57.8,58.7h196.3c29.8,0,53.9-27.4,53.9-58.7V176.7C308,147,284.9,124.6,254.1,124.6z M128,40
	c0-15.5,12.5-28,28-28s28,12.5,28,28l0,0v9.6h-56V40z M296,432c0,24.8-18.7,46.7-41.9,46.7H57.8C34.3,478.6,12,455.9,12,432V176.7
	c0-11.2,5.2-21.1,13.7-28.8c8.5-7.6,20.2-11.3,32-11.3H110c3.3,0,5-3.7,5-7v-30h7c3.3,0,6-2.7,6-6s-2.7-6-6-6h-8.1l-13.6-26h110.1
	l-15.2,26H162c-3.3,0-6,2.7-6,6s2.7,6,6,6h31v30c0,3.3,3.7,7,7,7h54.1c24.5,0,41.9,16.7,41.9,40.1V432z"/>
<path d="M26,197.1c-3.3,0-6,2.7-6,6v59.7c0,3.3,2.7,6,6,6s6-2.7,6-6v-59.7C32,199.8,29.3,197.1,26,197.1z"/>
<path d="M26,171.3c-3.3,0-6,2.7-6,6v5.4c0,3.3,2.7,6,6,6s6-2.7,6-6v-5.4C32,174,29.3,171.3,26,171.3z"/>
<path d="M254.5,156.6H58.2c-11.1-0.1-20.2,8.8-20.2,19.9c0,0,0,0.1,0,0.1v255.2c0,11.2,9.1,19.8,20.2,19.8h196.3
	c11.1,0,20.5-8.6,20.5-19.8V176.6C275,165.5,265.7,156.6,254.5,156.6z M58.2,439.6c-4.5,0-8.2-3.2-8.2-7.8v-27.4l35.6,35.1H58.2z
	 M102.5,439.6L50,387.5v-38.6l91,90.8H102.5z M158,439.6L50,331.9v-38.6l146.5,146.4H158z M213.4,439.6L50,276.3v-38.6l201.9,202
	H213.4z M263,431.9c-0.1,0.6-0.2,1.3-0.4,1.9L50,220.7v-38.6l213,213.3L263,431.9z M263,378.4L54.5,169.5c1.2-0.6,2.4-0.9,3.7-0.9
	h33.6L263,339.8L263,378.4z M263,322.8L108.8,168.6h38.5L263,284.2L263,322.8z M263,267.2l-98.7-98.5h38.5l60.2,59.9L263,267.2z
	 M263,211.5l-43.3-42.9h34.8c4.5-0.1,8.3,3.5,8.5,8L263,211.5z"/>
</svg>
