<?xml version="1.0" encoding="utf-8"?>
<!-- Generator: Adobe Illustrator 27.0.1, SVG Export Plug-In . SVG Version: 6.00 Build 0)  -->
<svg version="1.1" id="Layer_1" xmlns="http://www.w3.org/2000/svg" xmlns:xlink="http://www.w3.org/1999/xlink" x="0px" y="0px"
	 viewBox="0 0 489.1 489.6" style="enable-background:new 0 0 489.1 489.6;" xml:space="preserve">
<g>
	<path d="M69.4,370.1c-0.2,0-0.5,0-0.7,0l-64.4-9.2c-2.7-0.4-4.6-2.9-4.2-5.6l32.1-239c0,0,0-0.1,0-0.2
		c9.6-58.7,55.4-75.8,57.4-76.5l43-16.4c2.6-0.9,5.5,0.5,6.4,3.1c0.9,2.5-0.4,5.2-2.8,6.3L93,48.9c-0.2,0.1-10.8,4-22.4,14.5
		c-15.3,13.9-25,32.1-28.6,54.2L10.6,351.6l54.4,7.8l20.2-187.3c0.3-2.8,2.8-4.8,5.5-4.5s4.8,2.8,4.5,5.5L74.4,365.6
		C74.1,368.1,72,370.1,69.4,370.1z"/>
	<path d="M345.2,370.1c-2.6,0-4.7-1.9-5-4.5l-20.7-192.5c-0.4-2.7,1.6-5.2,4.3-5.6s5.2,1.6,5.6,4.3c0,0.1,0,0.2,0,0.2l20.2,187.3
		l54.4-7.8l-31.5-234c-3.7-22.2-13.4-40.6-28.9-54.5c-11.5-10.3-21.8-14.1-21.9-14.1l-0.1,0l-41.2-16.1c-2.6-1-3.8-3.9-2.8-6.5
		s3.9-3.8,6.5-2.8l41.2,16.1c2.8,1,47.8,18.3,57.3,76.5c0,0,0,0.1,0,0.2l32.1,239c0.4,2.7-1.5,5.2-4.2,5.6l-64.4,9.2
		C345.7,370.1,345.5,370.1,345.2,370.1z"/>
	<path d="M324,378.1H90.1c-2.8,0-5-2.2-5-5V124.6c0-2.8,2.2-5,5-5s5,2.2,5,5v243.5H319V124.6c0-2.8,2.2-5,5-5s5,2.2,5,5v248.5
		C329,375.9,326.7,378.1,324,378.1z"/>
	<path d="M186.7,100.9h-32.2c-8.5,0-15.1-2.5-19.6-7.4c-5.8-6.4-5.7-14.4-5.5-16.2V27.7c0-1.5,0.7-2.9,1.9-3.9l28.1-22.7
		c2.2-1.7,5.3-1.4,7,0.8s1.4,5.3-0.8,7l-26.3,21.2v47.4c0,0.2,0,0.3,0,0.5c0,0-0.4,5.3,3,8.9c2.5,2.7,6.6,4,12.1,4h32.2
		c2.8,0,5,2.2,5,5S189.5,100.9,186.7,100.9L186.7,100.9z"/>
	<path d="M262,100.9h-32.7c-2.8,0-5-2.2-5-5s2.2-5,5-5H262c5.6,0,9.7-1.4,12.2-4.1c3.3-3.6,3-8.8,3-8.8s0-0.3,0-0.5V30.1L251.4,8.9
		c-2.2-1.7-2.6-4.8-0.9-7s4.8-2.6,7-0.9c0.1,0.1,0.1,0.1,0.2,0.2l27.5,22.7c1.2,0.9,1.8,2.4,1.8,3.9v49.6c0.1,1.8,0.3,9.8-5.5,16.2
		C277.1,98.5,270.5,100.9,262,100.9z"/>
	<path d="M189.6,378.1c-2.8,0-5-2.2-5-5V162.7c0-1.7-0.1-24.1,16.6-42.5C180.3,99.5,157,63.5,157,5.1c0-2.8,2.2-5,5-5h92.6
		c2.8,0,5,2.2,5,5c0,48.2-16.3,88.3-48.4,119.1c-16.8,16.1-16.6,38.1-16.6,38.3v210.6C194.6,375.9,192.3,378.1,189.6,378.1z
		 M167,10.1c1.3,52,22.3,84.3,41.1,103c26.4-27.2,40.3-61.8,41.3-103H167z"/>
	<path d="M217.9,224.2c-2.8,0-5-2.2-5-5v-0.9c0-2.8,2.2-5,5-5s5,2.2,5,5v0.9C222.9,222,220.7,224.2,217.9,224.2z"/>
	<path d="M217.9,163.4c-2.8,0-5-2.2-5-5v-0.9c0-2.8,2.2-5,5-5s5,2.2,5,5v0.9C222.9,161.1,220.7,163.4,217.9,163.4z"/>
	<path d="M217.9,285.1c-2.8,0-5-2.2-5-5v-0.9c0-2.8,2.2-5,5-5s5,2.2,5,5v0.9C222.9,282.9,220.7,285.1,217.9,285.1z"/>
	<path d="M217.9,345.9c-2.8,0-5-2.2-5-5V340c0-2.8,2.2-5,5-5s5,2.2,5,5v0.9C222.9,343.7,220.7,345.9,217.9,345.9z"/>
	<path d="M299.4,161.9h-50.6c-2.8,0-5-2.2-5-5s2.2-5,5-5h50.6c2.8,0,5,2.2,5,5S302.2,161.9,299.4,161.9z"/>
	<path d="M323.6,340.1h-35.6c-8.9,0-16-2.7-21.1-8.1c-8.2-8.5-8.1-20.8-8-22.3v-28.7c0-2.8,2.2-5,5-5h59.8c2.8,0,5,2.2,5,5
		s-2.2,5-5,5h-54.8v24c0,0.1-0.3,9.3,5.3,15.1c3.2,3.3,7.8,5,13.8,5h35.6c2.8,0,5,2.2,5,5S326.4,340.2,323.6,340.1L323.6,340.1z"/>
	<path d="M125.7,340.1H90.1c-2.8,0-5-2.2-5-5s2.2-5,5-5h35.7c6,0,10.7-1.7,13.8-5c5.6-5.8,5.3-15,5.3-15.1s0-0.1,0-0.2v-23.7H90.1
		c-2.8,0-5-2.2-5-5s2.2-5,5-5h59.8c2.8,0,5,2.2,5,5v28.7c0.1,1.5,0.1,13.7-8,22.3C141.7,337.4,134.6,340.1,125.7,340.1z"/>
	<path d="M314.8,489.5c-1.3,0-2.6-0.5-3.5-1.4L203.2,379.2c-1.8-2.1-1.5-5.3,0.6-7c1.9-1.6,4.6-1.6,6.5,0l104,104.7l163.2-214.9
		l-75-75l-10.1,10c-2.2,1.7-5.3,1.2-7-1c-1.3-1.8-1.3-4.2,0-6l13.6-13.6c2-2,5.1-2,7.1,0l81.6,81.6c1.8,1.8,2,4.6,0.4,6.6
		L318.8,487.6c-0.9,1.2-2.2,1.9-3.7,2L314.8,489.5z"/>
	<path d="M315.6,488.8c-2.8,0-5-2.2-5-5c0-1.6,0.7-3.1,2-4l65-49.4l88.7-88.7l-24.5-24.5c-1.9-2-1.9-5.2,0.1-7.1
		c1.9-1.9,5-1.9,6.9,0l28.1,28.1c2,2,2,5.1,0,7.1l-92.5,92.5c-0.2,0.2-0.3,0.3-0.5,0.5l-65.3,49.6
		C317.7,488.4,316.7,488.8,315.6,488.8z"/>
	<path d="M448.7,369.9c-1.3,0-2.6-0.5-3.5-1.5l-24.5-24.5c-1.9-2-1.9-5.2,0.1-7.1c1.9-1.9,5-1.9,6.9,0l24.5,24.5
		c1.9,2,1.9,5.1,0,7.1C451.3,369.4,450.1,369.9,448.7,369.9z"/>
</g>
<g>
	<path d="M72.4,338.1c-0.2,0-0.5,0-0.7,0l-63-9c-2.7-0.4-4.6-2.9-4.2-5.7c0.4-2.7,2.9-4.6,5.7-4.2l63,9c2.7,0.4,4.6,2.9,4.2,5.7
		C77,336.3,74.9,338.1,72.4,338.1z"/>
	<path d="M342.4,338.1c-2.8,0-5-2.2-5-5c0-2.5,1.8-4.6,4.3-4.9l63-9c2.7-0.4,5.3,1.5,5.7,4.2s-1.5,5.3-4.2,5.7l-63,9
		C342.9,338.1,342.6,338.1,342.4,338.1z"/>
	<path d="M464.5,292.5c-1.3,0-2.6-0.5-3.5-1.5l-74.1-74.4c-1.9-2-1.9-5.2,0.1-7.1c1.9-1.9,5-1.9,6.9,0l74.1,74.4
		c1.9,2,1.9,5.1,0,7.1C467.1,291.9,465.8,292.5,464.5,292.5L464.5,292.5z"/>
</g>
</svg>
