<?xml version="1.0" encoding="utf-8"?>
<!-- Generator: Adobe Illustrator 27.0.1, SVG Export Plug-In . SVG Version: 6.00 Build 0)  -->
<svg version="1.1" id="Layer_1" xmlns="http://www.w3.org/2000/svg" xmlns:xlink="http://www.w3.org/1999/xlink" x="0px" y="0px"
	 viewBox="0 0 11.8 23.7" style="enable-background:new 0 0 11.8 23.7;" xml:space="preserve">
<g>
	<path d="M11.8,5.9C11.8,2.6,9.2,0,5.9,0C2.6,0,0,2.6,0,5.9c0,2.9,2.1,5.3,4.8,5.8v6.5c-0.4,0.1-0.7,0.3-0.7,0.6c0,0,0,0,0,0.1
		c0,0,0,0,0,0c0,0,0.2,0.7-0.1,1.2C3.4,20.2,2,20.5,2,21.3c0,0,0,0,0,0v1.1c0,0.9,1.8,1.3,3.6,1.3c1.8,0,3.6-0.5,3.6-1.3v-1.1
		c0-0.7-1.1-1-1.8-1.2c-0.3-0.5-0.1-1.2-0.1-1.2c0,0,0,0,0,0c0,0,0,0,0-0.1c0-0.3-0.3-0.5-0.7-0.6v-4h1c0,0,0,0,0,0c0,0,0,0,0,0
		c0.4,0,0.8-0.5,0.8-1.1S8,12.1,7.6,12.1c0,0,0,0,0,0c0,0,0,0,0,0h-1v-0.3C9.5,11.5,11.8,9,11.8,5.9z M0.5,5.9c0-3,2.4-5.4,5.4-5.4
		c3,0,5.4,2.4,5.4,5.4c0,2.9-2.2,5.2-5.1,5.4c0,0,0,0,0,0s0,0,0,0c-0.1,0-0.2,0-0.3,0c-0.3,0-0.5,0-0.8-0.1c0,0,0,0,0,0c0,0,0,0,0,0
		C2.5,10.8,0.5,8.6,0.5,5.9z M6.6,19.4c0,0.3,0.1,0.7,0.3,1c-0.2,0.1-0.6,0.2-1.2,0.2c-0.7,0-1.1-0.1-1.3-0.2c0,0,0,0,0,0
		c0,0,0,0,0,0c0.2-0.3,0.3-0.7,0.3-1c0.3,0.1,0.6,0.1,0.9,0.1C6,19.5,6.3,19.5,6.6,19.4z M5.6,23.2c-1.8,0-3.1-0.5-3.1-0.8V22
		c0,0,0,0,0.1,0.1c0.6,0.4,1.8,0.6,3,0.6c1.2,0,2.4-0.2,3-0.6c0,0,0,0,0.1,0v0.4C8.6,22.7,7.4,23.2,5.6,23.2z M8.6,21.3
		c0,0.1-0.1,0.2-0.3,0.3c-0.6,0.3-1.6,0.5-2.8,0.5s-2.2-0.2-2.8-0.5c-0.2-0.1-0.3-0.2-0.3-0.3v0c0,0,0,0,0,0c0-0.2,0.4-0.5,1.4-0.7
		c0.3,0.5,1.6,0.5,1.8,0.5c0.6,0,1.4-0.1,1.7-0.4c0,0,0-0.1,0.1-0.1C8.3,20.8,8.6,21.1,8.6,21.3z M5.7,19c-0.5,0-0.9-0.1-1-0.2
		c0.1-0.1,0.5-0.2,1-0.2c0.5,0,0.9,0.1,1,0.2C6.5,18.9,6.2,19,5.7,19z M7.6,13.8c-0.1,0-0.3-0.2-0.3-0.6s0.2-0.6,0.3-0.6
		s0.3,0.2,0.3,0.6S7.6,13.8,7.6,13.8z M6.9,12.6c-0.1,0.2-0.1,0.4-0.1,0.6s0.1,0.4,0.1,0.6H6.5v-1.2C6.5,12.6,6.9,12.6,6.9,12.6z
		 M6,18.1c-0.2,0-0.4,0-0.7,0v-6.3c0.2,0,0.4,0,0.6,0c0,0,0.1,0,0.1,0C6,11.8,6,18.1,6,18.1z"/>
	<path d="M4.8,10.1c0.5,0.4,1.3,0.6,1.8,0.6c0.1,0,0.2,0,0.3,0c0.5-0.1,0.8-0.2,0.9-0.5c0.1-0.4-0.2-0.8-0.4-1
		C7.1,8.8,6.8,7.9,6.6,6.8c0.8,0.5,1.9,0.6,2.2,0.6c0,0,0,0,0.1,0c0.4,0,0.8-0.2,1.1-0.5c0.5-0.6,0.6-1.6,0.6-2.1
		c-0.1-0.5-0.2-0.8-0.5-0.9c-0.4-0.2-0.9,0.3-1,0.4C8.6,4.6,7.6,4.9,6.7,5c0,0,0,0,0,0c0.4-0.7,0.6-1.5,0.6-2.2
		c0-0.4-0.2-0.8-0.5-1.1C6.2,1.2,5.2,1.1,4.7,1.1C4.2,1.2,3.9,1.4,3.8,1.6C3.6,2,4,2.5,4.2,2.7C4.5,3,4.8,3.8,4.9,4.8
		c-0.7-0.4-1.6-0.4-2-0.4c-0.4,0-0.8,0.2-1.1,0.5C1.2,5.5,1.1,6.5,1.2,7c0.1,0.5,0.2,0.8,0.5,0.9c0.1,0,0.1,0,0.2,0
		c0.4,0,0.7-0.3,0.8-0.4c0.4-0.4,1.3-0.6,2.1-0.8C4.3,7.6,4.3,8.7,4.3,9C4.3,9.4,4.5,9.8,4.8,10.1z M7.4,10c0,0.1-0.2,0.2-0.5,0.2
		c-0.4,0.1-1.2-0.1-1.7-0.5C4.9,9.5,4.8,9.3,4.8,9c0-0.6,0.1-1.5,0.6-2.1l0.1-0.1C5.6,6.9,5.8,6.9,6,6.9c0.1,0,0.1,0,0.2,0
		c0.1,0.8,0.4,2,0.9,2.6C7.3,9.7,7.4,9.9,7.4,10z M6.4,5.5c0.1,0.1,0.1,0.2,0.1,0.4c0,0.2-0.1,0.4-0.3,0.5l0,0
		C6,6.5,5.7,6.4,5.5,6.2C5.4,6.1,5.3,6,5.3,5.8c0-0.1,0-0.3,0.1-0.4c0.1-0.2,0.3-0.2,0.5-0.2C6.1,5.2,6.3,5.3,6.4,5.5z M9.4,4.6
		c0.2-0.2,0.4-0.3,0.5-0.3c0.1,0,0.2,0.2,0.2,0.5c0.1,0.4-0.1,1.2-0.5,1.7C9.5,6.7,9.2,6.9,8.9,6.9c-0.6,0-1.5-0.1-2-0.5
		C7,6.2,7.1,6,7.1,5.8c0-0.1,0-0.2,0-0.3C7.7,5.4,8.9,5.1,9.4,4.6z M4.3,1.8c0-0.1,0.2-0.2,0.5-0.2C5.2,1.6,6,1.7,6.5,2.1
		c0.2,0.2,0.3,0.5,0.3,0.8c0,0.6-0.1,1.4-0.5,2C6,4.7,5.7,4.7,5.5,4.8C5.3,4,5.1,2.9,4.5,2.3C4.3,2.1,4.2,1.9,4.3,1.8z M2.4,7.1
		C2.2,7.3,2,7.5,1.9,7.4c-0.1,0-0.2-0.2-0.2-0.5C1.6,6.5,1.7,5.7,2.2,5.2C2.4,5,2.6,4.9,2.9,4.9c0.3,0,1.4,0,2,0.5
		C4.9,5.5,4.8,5.7,4.8,5.8c0,0.1,0,0.3,0.1,0.4C4.2,6.3,3,6.6,2.4,7.1z"/>
</g>
</svg>
