<?xml version="1.0" encoding="utf-8"?>
<!-- Generator: Adobe Illustrator 27.0.1, SVG Export Plug-In . SVG Version: 6.00 Build 0)  -->
<svg version="1.1" id="Layer_1" xmlns="http://www.w3.org/2000/svg" xmlns:xlink="http://www.w3.org/1999/xlink" x="0px" y="0px"
	 viewBox="0 0 87.6 73.1" style="enable-background:new 0 0 87.6 73.1;" xml:space="preserve">
<g>
	<path d="M12.2,33.5L8.6,14.3c-0.1-0.4-0.4-0.6-0.8-0.6c-0.4,0.1-0.6,0.4-0.6,0.8l3.6,19.2c0.1,0.3,0.4,0.6,0.7,0.6h0.1
		C12,34.3,12.3,33.9,12.2,33.5z"/>
	<path d="M12.3,37.8c-0.4,0.1-0.6,0.4-0.6,0.8l0.9,4.8c0.1,0.3,0.4,0.6,0.7,0.6h0.1c0.4-0.1,0.6-0.4,0.6-0.8l-0.9-4.8
		C13.1,37.9,12.7,37.7,12.3,37.8z"/>
	<path d="M82.7,49.3c-3-1.7-6.4-2.1-6.4-2.1l-25.2-5.5c-1.3-0.3-2.3-1.2-2.7-2.4L38.3,9.4l-1.9-5.6l-8.9,3l-0.2-1l-1,0.2l1-0.2
		L26.2,0L0,4.9l1.1,5.8l0,0l7.3,38.4l1-0.2l-1,0.2c0,0.2,1.2,5.3,7.1,9.4c5.6,3.9,31.6,13.5,32.6,13.9c1.1,0.4,2.4,0.7,3.8,0.7
		c0.1,0,0.2,0,0.3,0c2,0,5-0.5,8.2-2.4c4.5,1.1,7.8,1.8,7.8,1.8c0.7,0.2,1.5,0.3,2.3,0.3c0.5,0,1,0,1.6-0.1
		c2.7-0.3,9.6-2.1,14.3-11.6C88.8,56.1,87.5,51.9,82.7,49.3z M36,9.4L28.4,12l-0.6-3.1L35,6.5L36,9.4z M24.4,2.4L25,5.5L3.1,9.6
		L2.5,6.5L24.4,2.4z M10.7,49.4l12.4-2.3l-1.3,12.4c-2.2-1-4.1-2-5.1-2.7C12.7,54.1,11.2,50.8,10.7,49.4z M23.9,46.3L23.9,46.3
		L23.9,46.3L23.9,46.3z M23.8,46.3L23.8,46.3L23.8,46.3L23.8,46.3z M23.8,46.2l-0.1-0.7L23.8,46.2L23.8,46.2z M23.1,60.1l1.5-13.7
		l-0.7-0.1l0,0H24h0.6c0-0.2-0.1-0.4-0.2-0.6s-0.4-0.2-0.6-0.2l0,0l0,0L10.5,48l-7-37l21.9-4.1l0.3,1.5l1-0.2l-1,0.2l0.9,4.9
		l4.5,23.9c0.4,2,1.8,3.7,3.7,4.4l24.3,9c0,0,2.6,0.8,4.9,2.3l-10,15L51.9,71c-1.4,0-2.4-0.3-3-0.6C48.7,70.4,32.8,64.5,23.1,60.1z
		 M53.6,70.9l1.5-2.3L65,53.7c2.9,2.5,3.2,5.3,0.9,8.7c-1.8,2.7-3.9,4.8-6.2,6.3C57.4,70.1,55.3,70.7,53.6,70.9z M68.7,70.4
		c0,0-2.4-0.5-5.9-1.3c1.8-1.5,3.4-3.3,4.9-5.5c3.1-4.5,2.4-8.8-2-12.1c-2.8-2.1-6-3-6.1-3l-24.2-8.9c-1.2-0.5-2.1-1.5-2.4-2.8
		l-4.3-23.4l7.8-2.6L46.4,40c0.7,1.9,2.3,3.4,4.3,3.8L76,49.3c0,0,2.7,0.4,5.2,1.6l-9.4,19.7C70.4,70.7,69.3,70.5,68.7,70.4z
		 M84.5,60.1c-3.4,7-7.9,9.4-11,10.2l8.9-18.7C85.6,53.6,86.3,56.4,84.5,60.1z"/>
	<path d="M34.6,19.2c-0.1-0.4-0.5-0.6-0.9-0.4s-0.6,0.5-0.4,0.9l4.1,11.7c0.1,0.3,0.4,0.5,0.7,0.5c0.1,0,0.2,0,0.2,0
		c0.4-0.1,0.6-0.5,0.4-0.9L34.6,19.2z"/>
</g>
</svg>
