<?xml version="1.0" encoding="utf-8"?>
<!-- Generator: Adobe Illustrator 27.0.1, SVG Export Plug-In . SVG Version: 6.00 Build 0)  -->
<svg version="1.1" id="Layer_1" xmlns="http://www.w3.org/2000/svg" xmlns:xlink="http://www.w3.org/1999/xlink" x="0px" y="0px"
	 viewBox="0 0 176.5 218.4" style="enable-background:new 0 0 176.5 218.4;" xml:space="preserve">
<style type="text/css">
	.st0{fill:#F6B873;}
	.st1{fill-rule:evenodd;clip-rule:evenodd;fill:#C0272D;}
</style>
<path class="st0" d="M43.2,55.1c7.5,2.9,14.1,4.3,18.6,5l3.6,52.6l-41,88c-2.9,6.2-0.2,13.5,6,16.4s13.5,0.2,16.4-6l39.2-84h4.6
	l39.2,84.1c2.9,6.2,10.2,8.9,16.4,6s8.9-10.2,6-16.4l-41-88l3.6-52.6c4.6-0.7,11.2-2.1,18.6-5c13.8-5.3,30.7-15.9,42.1-36.2
	c2.2-3.8,0.8-8.7-3-10.9s-8.7-0.8-10.9,3c-9.2,16.4-22.6,24.7-34,29.2c-5.7,2.2-10.8,3.4-14.4,4c-1.8,0.3-3.3,0.5-4.2,0.6
	c-0.2,0-0.3,0-0.4,0c-0.3,0-0.6-0.1-1-0.1H69c-0.3,0-0.6,0-1,0.1c-2.6-0.2-10.7-1.2-20.1-5C36.7,35.3,23.9,27,15,11.2
	C12.8,7.4,8,6,4.1,8.2s-5.2,7-3,10.9C12.5,39.2,29.4,49.8,43.2,55.1z"/>
<path class="st0" d="M83.2,44.4c8.7,2,17.4-1.3,22.7-7.9c2-2.5,3.5-5.6,4.3-8.9c2.8-12.1-4.7-24.2-16.8-27s-24.2,4.7-27,16.8
	c-1.6,7,0.2,13.9,4.3,19.1C73.8,40.4,78.1,43.2,83.2,44.4z"/>
<g id="Layer_2_00000129199913307808877090000000460469064249753478_">
	<path class="st1" d="M87.4,143.5l-11.5,17.3c-13.5-0.7-27.4-3.8-32.3-11.7c4.6-10.1,15.4-24.5,21-36.2c13.2,7.2,32.2,6.9,45.8,0
		c5,11.9,18,30.1,22.8,38.3c-9.6,9-13.5,11.5-32.6,10.3L87.4,143.5z"/>
</g>
<g id="Layer_3">
	<path d="M47.8,39.8c-0.6,0.5-1.4,2.8-2.8,7.3c-1.5,4.8-2.3,7.2-1.9,8c1.8,4.5,8.4,3.4,14.1,8.6c3.1,2.9,7.2,3.3,6.3,22.4
		c-0.9,20.5-0.7,23.7,1.8,26.6c4.3,5.1,11.9,5.2,22.2,5.3c10.5,0.1,19,0.2,23.6-5.3c2.4-2.8,2.7-5.8,1.8-26.6
		c-0.8-19,3.9-18.9,7.1-21.9c5.7-5.3,11.3-4.5,13.4-9.2c1.1-2.4-0.6-5.9-2.4-9.7c-1.4-2.9-2-4.3-3.3-5.2c-4-2.8-7.3,0.6-16.9,2.8
		c-7.4,1.7-3,1.4-21.6,1.7c-11.6,0.2-15.7-0.4-20-1.1C58.3,41.8,51.3,37.1,47.8,39.8z"/>
</g>
</svg>
